HIERARCHY
ROOT Hips
{
    OFFSET 0.000000 0.000000 0.000000
    CHANNELS 6 Xposition Yposition Zposition Zrotation Xrotation Yrotation
    JOINT Spine
    {
        OFFSET -0.000000 7.236184 0.000000
        CHANNELS 3 Zrotation Xrotation Yrotation
        JOINT Spine1
        {
            OFFSET -0.000000 20.420147 0.000000
            CHANNELS 3 Zrotation Xrotation Yrotation
            JOINT Neck
            {
                OFFSET -0.000000 20.336288 1.848754
                CHANNELS 3 Zrotation Xrotation Yrotation
                JOINT Head
                {
                    OFFSET -0.000000 12.354461 -1.764923
                    CHANNELS 3 Zrotation Xrotation Yrotation
                    End Site
                    {
                        OFFSET -0.000000 22.061537 0.000000
                    }
                }
            }
            JOINT LeftShoulder
            {
                OFFSET 3.573296 18.396038 -0.314103
                CHANNELS 3 Zrotation Xrotation Yrotation
                JOINT LeftArm
                {
                    OFFSET 10.880760 0.000000 0.000000
                    CHANNELS 3 Zrotation Xrotation Yrotation
                    JOINT LeftForeArm
                    {
                        OFFSET 27.185530 0.000000 0.000000
                        CHANNELS 3 Zrotation Xrotation Yrotation
                        JOINT LeftHand
                        {
                            OFFSET 27.825975 0.000000 0.000000
                            CHANNELS 3 Zrotation Xrotation Yrotation
                            End Site
                            {
                                OFFSET 13.236923 0.000000 0.000000
                            }
                        }
                    }
                }
            }
            JOINT RightShoulder
            {
                OFFSET -3.474926 18.396038 -0.314103
                CHANNELS 3 Zrotation Xrotation Yrotation
                JOINT RightArm
                {
                    OFFSET -10.880760 0.000000 0.000000
                    CHANNELS 3 Zrotation Xrotation Yrotation
                    JOINT RightForeArm
                    {
                        OFFSET -27.185530 0.000000 0.000000
                        CHANNELS 3 Zrotation Xrotation Yrotation
                        JOINT RightHand
                        {
                            OFFSET -27.825975 0.000000 0.000000
                            CHANNELS 3 Zrotation Xrotation Yrotation
                            End Site
                            {
                                OFFSET -13.236923 0.000000 0.000000
                            }
                        }
                    }
                }
            }
        }
    }
    JOINT LeftUpLeg
    {
        OFFSET 8.824615 0.000000 0.000000
        CHANNELS 3 Zrotation Xrotation Yrotation
        JOINT LeftLeg
        {
            OFFSET -0.000000 -35.111282 0.000000
            CHANNELS 3 Zrotation Xrotation Yrotation
            JOINT LeftFoot
            {
                OFFSET -0.000000 -42.324711 0.000000
                CHANNELS 3 Zrotation Xrotation Yrotation
                JOINT LeftToeBase
                {
                    OFFSET -0.000000 -5.735999 13.236923
                    CHANNELS 3 Zrotation Xrotation Yrotation
                    End Site
                    {
                        OFFSET -0.000000 0.000000 3.529846
                    }
                }
            }
        }
    }
    JOINT RightUpLeg
    {
        OFFSET -8.824615 0.000000 0.000000
        CHANNELS 3 Zrotation Xrotation Yrotation
        JOINT RightLeg
        {
            OFFSET -0.000000 -35.111282 0.000000
            CHANNELS 3 Zrotation Xrotation Yrotation
            JOINT RightFoot
            {
                OFFSET -0.000000 -42.324711 0.000000
                CHANNELS 3 Zrotation Xrotation Yrotation
                JOINT RightToeBase
                {
                    OFFSET -0.000000 -5.735999 13.236923
                    CHANNELS 3 Zrotation Xrotation Yrotation
                    End Site
                    {
                        OFFSET -0.000000 0.000000 3.529846
                    }
                }
            }
        }
    }
}
MOTION
Frames:    12
Frame Time:    0.008333
-16.875378    83.595619    101.577187    -5.249240    -12.267638    166.912872    -3.625225    -18.050802    1.933736    -0.319698    6.403303    2.527640    2.707279    7.216580    -1.873353    9.588635    -12.835306    0.238627    -1.828829    17.274876    4.193707    -54.493683    32.851997    -25.850327    0.367892    -4.253315    -11.741594    15.903921    -3.757204    3.288677    7.683532    21.915176    -8.165231    42.421661    48.536026    34.503723    -0.635318    -10.668598    18.344172    -19.860222    -9.780246    -4.567844    2.191666    -19.131695    -0.783346    0.173918    14.621617    -0.060146    -4.084960    -7.222620    -8.452685    -0.788779    -0.519741    0.875154    -1.850122    -8.842751    -5.271918    3.130623    3.652965    -7.226774    -4.394589    -5.604125    -19.209091    -1.637202    -0.079208    1.770935    
-16.965563    83.599167    101.506683    -5.233030    -12.257972    166.956009    -3.609682    -18.037050    1.975314    -0.351820    6.418917    2.568141    2.674081    7.151883    -1.928261    9.620172    -12.907621    0.196504    -1.822229    17.246284    4.318296    -54.705250    32.228470    -25.369444    0.341069    -4.177239    -11.655138    15.528984    -3.709770    3.180626    7.627537    21.952732    -8.138229    42.699852    48.467602    34.265419    -0.641198    -10.710611    18.262806    -19.774637    -9.839053    -4.488233    2.136727    -19.087835    -0.835427    0.133793    14.618320    -0.004959    -4.030976    -7.266863    -8.460121    -0.736283    -0.489171    0.816864    -1.951703    -8.949185    -5.358713    3.172565    3.941494    -7.162263    -4.342997    -5.677583    -19.280409    -1.648341    -0.150992    1.783159    
-17.054901    83.602585    101.437256    -5.217276    -12.249131    166.997589    -3.593853    -18.023468    2.016779    -0.383604    6.434134    2.608472    2.641686    7.087241    -1.982582    9.650111    -12.978370    0.154437    -1.815284    17.216398    4.440574    -54.896095    31.605677    -24.904428    0.314547    -4.102451    -11.572008    15.158207    -3.661268    3.083198    7.573053    21.989704    -8.112716    42.976276    48.398693    34.027599    -0.646936    -10.753793    18.182180    -19.689587    -9.898709    -4.409838    2.083134    -19.045486    -0.884544    0.093594    14.615445    0.050294    -3.978962    -7.310709    -8.468729    -0.684259    -0.459047    0.759105    -2.053237    -9.060131    -5.445990    3.214518    4.235333    -7.098482    -4.292052    -5.751394    -19.349119    -1.658339    -0.223215    1.794152    
-17.144772    83.605843    101.368332    -5.202051    -12.241755    167.037231    -3.577088    -18.009686    2.058952    -0.415664    6.448820    2.649419    2.609305    7.020813    -2.037170    9.679788    -13.048012    0.112019    -1.806692    17.183733    4.561424    -55.067825    30.974817    -24.448845    0.287527    -4.029071    -11.492297    14.787619    -3.612093    2.996876    7.519729    22.026625    -8.089519    43.256668    48.327732    33.784786    -0.652655    -10.800332    18.101166    -19.603764    -9.961479    -4.332492    2.030762    -19.005402    -0.929182    0.052198    14.613605    0.106517    -3.929195    -7.354825    -8.479165    -0.631610    -0.429671    0.700661    -2.157107    -9.182972    -5.535929    3.257997    4.546683    -7.034688    -4.241375    -5.827382    -19.414865    -1.666161    -0.298326    1.802802    
-17.233944    83.608803    101.301361    -5.187886    -12.236687    167.073441    -3.559186    -17.995604    2.101445    -0.447784    6.462320    2.690473    2.577327    6.952253    -2.091220    9.709190    -13.114447    0.069810    -1.795684    17.147083    4.677682    -55.216995    30.345276    -24.008680    0.259881    -3.959270    -11.418514    14.423566    -3.563951    2.924951    7.469280    22.062689    -8.069898    43.538757    48.255096    33.538002    -0.658290    -10.851011    18.020657    -19.518705    -10.027749    -4.258163    1.980901    -18.969471    -0.966327    0.009877    14.613328    0.163751    -3.883504    -7.398432    -8.493022    -0.579210    -0.401521    0.642499    -2.262837    -9.321593    -5.627832    3.303441    4.879105    -6.971408    -4.192060    -5.905255    -19.476500    -1.670817    -0.376553    1.808033    
-17.322226    83.611389    101.236984    -5.175318    -12.234458    167.105469    -3.540256    -17.980854    2.144173    -0.479842    6.474346    2.731571    2.546907    6.880584    -2.144404    9.736206    -13.177271    0.027446    -1.781475    17.105404    4.787557    -55.342506    29.719261    -23.585056    0.231067    -3.894262    -11.352364    14.066890    -3.517969    2.869546    7.422150    22.097702    -8.054364    43.823204    48.180149    33.285873    -0.663799    -10.906663    17.941111    -19.434996    -10.098120    -4.188241    1.933876    -18.939037    -0.994084    -0.033575    14.615239    0.221553    -3.842453    -7.441395    -8.510527    -0.527091    -0.374637    0.584656    -2.371420    -9.480198    -5.721586    3.351915    5.238153    -6.908754    -4.144777    -5.985163    -19.533789    -1.671214    -0.458810    1.808669    
-17.409882    83.613548    101.175568    -5.164744    -12.235548    167.132751    -3.520181    -17.964767    2.187208    -0.512126    6.484518    2.772814    2.517754    6.805079    -2.196866    9.761466    -13.237383    -0.014977    -1.763184    17.057898    4.890134    -55.443722    29.095957    -23.177607    0.200615    -3.834955    -11.295103    13.715424    -3.475169    2.832376    7.378466    22.131979    -8.043084    44.111816    48.102581    33.026638    -0.669797    -10.968721    17.862484    -19.353092    -10.173691    -4.124116    1.889556    -18.915375    -1.010438    -0.078140    14.620166    0.279966    -3.806237    -7.483769    -8.532664    -0.475025    -0.349308    0.526880    -2.484091    -9.663807    -5.817438    3.404314    5.631048    -6.847758    -4.099645    -6.067467    -19.585693    -1.666412    -0.546720    1.803691    
-17.497293    83.615181    101.117470    -5.156736    -12.240273    167.154999    -3.499146    -17.946369    2.230593    -0.544749    6.492621    2.814181    2.490783    6.723654    -2.248646    9.782775    -13.294999    -0.058174    -1.740261    17.003222    4.984261    -55.519981    28.473801    -22.785471    0.167885    -3.781933    -11.248137    13.366141    -3.436188    2.815031    7.337963    22.165440    -8.035683    44.407238    48.021557    32.757534    -0.676817    -11.038187    17.784807    -19.273735    -10.255108    -4.067290    1.847520    -18.899769    -1.014039    -0.123976    14.629188    0.339312    -3.774731    -7.525745    -8.560286    -0.422917    -0.325771    0.469064    -2.602907    -9.877033    -5.914728    3.462560    6.064923    -6.787915    -4.057302    -6.152362    -19.634090    -1.655580    -0.642444    1.792205    
-17.584545    83.616219    101.063240    -5.151947    -12.248755    167.171860    -3.477489    -17.924685    2.274112    -0.577834    6.498489    2.855516    2.463295    6.635859    -2.300251    9.804937    -13.352080    -0.101017    -1.712200    16.940626    5.068474    -55.569824    27.853689    -22.409796    0.132400    -3.735788    -11.213593    13.016834    -3.401675    2.819686    7.300569    22.198622    -8.031529    44.710270    47.936363    32.477749    -0.685288    -11.115893    17.708328    -19.198225    -10.342825    -4.019595    1.807100    -18.893614    -1.003373    -0.170600    14.643580    0.399130    -3.747743    -7.567372    -8.593801    -0.370749    -0.304253    0.411187    -2.729341    -10.123848    -6.012611    3.527800    6.545668    -6.731260    -4.018032    -6.239693    -19.678219    -1.638516    -0.747216    1.773991    
-17.671152    83.616486    101.013802    -5.151060    -12.260937    167.183136    -3.455851    -17.898773    2.317190    -0.611164    6.502216    2.896260    2.435228    6.541067    -2.351389    9.827676    -13.409755    -0.143251    -1.678863    16.869989    5.140641    -55.592152    27.240376    -22.054453    0.094411    -3.696699    -11.193344    12.667770    -3.371926    2.847462    7.266271    22.230991    -8.029565    45.019608    47.847073    32.188110    -0.695378    -11.201931    17.634033    -19.128334    -10.436481    -3.983319    1.767810    -18.898409    -0.977954    -0.217490    14.664873    0.458870    -3.724800    -7.608539    -8.633118    -0.319025    -0.285247    0.353810    -2.864087    -10.405508    -6.109171    3.601067    7.074352    -6.679371    -3.982562    -6.328231    -19.718395    -1.614984    -0.862663    1.748794    
-17.757744    83.615860    100.969421    -5.154590    -12.276885    167.188965    -3.434696    -17.867233    2.359682    -0.644721    6.503864    2.936359    2.406312    6.437226    -2.402487    9.850495    -13.470310    -0.185223    -1.639825    16.790560    5.200150    -55.585854    26.631639    -21.719322    0.053942    -3.664060    -11.189642    12.315102    -3.346469    2.899555    7.234451    22.262775    -8.028948    45.337318    47.752605    31.886934    -0.707275    -11.297560    17.561617    -19.064672    -10.537071    -3.960111    1.728618    -18.915911    -0.937280    -0.264450    14.695389    0.519033    -3.705136    -7.649895    -8.678946    -0.267606    -0.269350    0.296776    -3.009562    -10.726461    -6.203247    3.684754    7.658224    -6.633788    -3.951280    -6.417573    -19.755634    -1.585556    -0.991545    1.717237    
-17.844320    83.614143    100.930763    -5.163051    -12.296576    167.189499    -3.414577    -17.829071    2.401105    -0.678351    6.503938    2.975399    2.379951    6.323696    -2.452893    9.866263    -13.537500    -0.228115    -1.595032    16.702271    5.245229    -55.549675    26.029470    -21.407187    0.011827    -3.636686    -11.204847    11.958697    -3.324275    2.976426    7.204981    22.294203    -8.027989    45.662968    47.651203    31.574568    -0.720236    -11.403581    17.491341    -19.008369    -10.645190    -3.951730    1.688794    -18.948170    -0.881593    -0.311157    14.737663    0.579808    -3.687838    -7.691772    -8.731279    -0.216868    -0.256725    0.240502    -3.167232    -11.089098    -6.293440    3.780839    8.300605    -6.596364    -3.924689    -6.506449    -19.790346    -1.550596    -1.136063    1.679713    
